<?xml version="1.0" standalone="no"?>
<!DOCTYPE svg PUBLIC "-//W3C//DTD SVG 20010904//EN"
 "http://www.w3.org/TR/2001/REC-SVG-20010904/DTD/svg10.dtd">
<svg version="1.0" xmlns="http://www.w3.org/2000/svg"
 width="512.000000pt" height="512.000000pt" viewBox="0 0 512.000000 512.000000"
 preserveAspectRatio="xMidYMid meet">

<g transform="translate(0.000000,512.000000) scale(0.100000,-0.100000)"
fill="#000000" stroke="none">
<path d="M132 5109 c-45 -13 -109 -79 -122 -127 -7 -28 -9 -666 -8 -2088 l3
-2049 24 -38 c13 -21 42 -50 64 -65 l41 -27 267 0 267 0 43 30 c114 81 114
249 0 330 -42 29 -46 30 -177 33 l-134 4 0 1404 0 1404 2160 0 2160 0 2 -824
3 -824 30 -43 c81 -114 249 -114 330 0 l30 43 0 957 0 957 -27 41 c-15 22 -44
51 -65 64 l-38 24 -1301 3 -1302 2 -52 148 c-200 572 -194 555 -230 592 -20
20 -54 41 -76 48 -51 15 -1839 16 -1892 1z m1723 -496 c21 -60 53 -150 71
-200 l33 -93 -779 0 -780 0 0 200 0 200 709 0 708 0 38 -107z"/>
<path d="M1664 1811 c-230 -62 -398 -236 -449 -466 -13 -60 -15 -153 -13 -641
l3 -570 27 -41 c41 -62 90 -88 168 -88 78 0 127 26 168 88 l27 40 3 258 3 257
194 4 193 3 43 30 c114 81 114 249 0 330 l-43 30 -194 3 -194 4 0 96 c0 117
11 161 52 208 57 65 71 68 305 74 l211 5 43 30 c114 81 114 249 0 330 l-43 30
-216 2 c-187 2 -227 0 -288 -16z"/>
<path d="M2672 1819 c-18 -5 -50 -27 -72 -49 -88 -88 -74 -232 29 -305 41 -29
46 -30 177 -33 l133 -4 3 -642 3 -642 27 -41 c41 -62 90 -88 168 -88 78 0 127
26 168 88 l27 41 3 642 3 642 123 3 c119 4 126 5 167 34 114 81 114 249 0 330
l-43 30 -441 2 c-262 1 -455 -2 -475 -8z"/>
<path d="M4450 1820 c-241 -34 -422 -181 -498 -405 l-27 -80 -3 -590 -3 -590
24 -45 c13 -25 43 -58 66 -75 37 -26 51 -30 111 -30 60 0 74 4 111 30 79 56
84 74 87 363 l3 252 138 0 c155 0 256 20 342 66 180 99 300 280 316 480 7 93
-18 217 -64 314 -102 214 -357 345 -603 310z m141 -401 c69 -24 129 -106 129
-179 0 -43 -29 -107 -61 -137 -46 -42 -91 -53 -219 -53 l-120 0 0 108 c0 83 5
116 19 147 45 98 154 146 252 114z"/>
</g>
</svg>
